<?xml version="1.0" encoding="UTF-8"?>
<svg xmlns="http://www.w3.org/2000/svg" viewBox="0 0 280 120" role="img" aria-label="Lyatoshynsky logo">
  <defs>
    <style>
      .st0 { fill: #231f20; }
    </style>
  </defs>

  <!-- translate original artwork so its bounding box sits at (0,0) in the new viewBox -->
  <g transform="translate(-155 -152)">
    <g id="WqmA9U.tif">
      <g>
        <path class="st0" d="M415.92,197.8c-7.54-.14-14.19.7-23.72.62-3.02-.02-14.29.14-21.95.51,4.25-11.68,3.08-23.84-7.88-34.88-20.96-21.23-107.82,11.97-132.87,50.28-5.83.72-11.83,1.33-17.41,1.4-2.63.04-5.36-.16-7.74.06-10.27.94-20.74,2.03-30.72,3.35-4.29.55-6.69.62-10.62,2.81-3.92,2.22-6.02,7.62.27,8.73,4.41.78,9.01-.45,13.45-.39,1.95.02,4.46.31,6.14.23,1.68-.06,2.14-.29,3.65-.18,12.03.94,24.31.8,36.42.16-.99,6.9.55,13.72,5.34,20.22,16.02,21.99,70.53,7.23,92.17-3.2,11.5-5.58,26.41-16.02,37.31-28.52,3.65-.02,7.27-.02,10.9-.04,13.41-.06,25.77.31,38.54-.78,9.73-.84,22.26-.96,27.41-9.67,6.32-10.7-11.19-10.53-18.71-10.7ZM345.99,186.26c.33.51.64,1.03.88,1.56-.16-.04-.33-.04-.49-.02-.37.02-.72.1-1.09.14-.33.04-.66.08-.99.14-.08.02-.14.04-.21.04-10.47,1.5-20.64,4.44-30.88,7,2.03-.88,4.07-1.7,6.12-2.48s4.13-1.54,6.22-2.09t.04-.02c2.34-.41,4.72-.72,7.1-.92,4.39-.39,5.19-5.87,2.09-7.66,5.3,1.19,10.25,2.83,11.19,4.31ZM332.7,181.4c.8.02,1.5.21,2.05.53-.68-.16-1.38-.31-2.05-.45-.1-.02-.21-.04-.31-.06-.06-.02-.14-.02-.21-.04.16.02.35.02.51.02ZM321.84,180.19c2.07-.14,6.12.35,10.31,1.19-3.43-.02-6.86.57-10.23,1.54-4,.76-7.97,1.79-11.85,3.1-5.36,1.83-10.66,4.39-16.22,5.22,11.48-6.3,22.36-10.66,27.99-11.05ZM284.39,196.82c.39,1.11,1.23,1.93,2.3,2.38-3.2,1.75-6.41,3.53-9.61,5.32-1.56.9-2.11,2.32-1.97,3.7-2.46.29-5.01.6-7.62.94,4.97-4.29,10.84-8.52,16.9-12.34ZM256.12,236.86c-2.61-2.73-3.26-5.93-2.42-9.4,23.69-2.87,59.07-6.88,70.18-7.23,1.33-.04,2.4-.08,3.24-.1h.1c1.29-.1,2.55-.21,3.8-.29-22.3,15.6-59.57,25.36-74.9,17.02ZM347.88,200.39c-8.27.37-16.12.57-25.73,1.75-2.11.27-4.27.53-6.45.84,6.96-1.77,13.92-3.68,20.96-5.19,1.38,2.65,5.44,3.8,7.06.39.47-.99,1.05-1.79,2.05-2.05.18-.06.37-.08.6-.1.37-.04.72-.1,1.09-.14.47-.06.88-.21,1.23-.41-.02,1.64-.31,3.31-.82,4.93Z"/>
        <path class="st0" d="M327.22,220.12c.33-.02.62-.02.88-.02-.76.04-1.46.06-1.46.06.16-.02.31-.02.47-.04h.10Z"/>
        <path class="st0" d="M329.38,220.06c-.27,0-.68.02-1.27.04.47-.02.94-.04,1.27-.04Z"/>
      </g>
    </g>
    <path class="st0" d="M332.7,181.4c-.16,0-.35,0-.51-.02.06.02.14.02.21.04.1.02.21.04.31.06.68.14,1.38.29,2.05.45-.55-.33-1.25-.51-2.05-.53Z"/>
    <path class="st0" d="M334.76,181.93c-.68-.16-1.38-.31-2.05-.45-.1-.02-.21-.04-.31-.06-.06-.02-.14-.02-.21-.04.16.02.35.02.51.02.8.02,1.5.21,2.05.53Z"/>
  </g>
</svg>